<svg xmlns="http://www.w3.org/2000/svg" xmlns:xlink="http://www.w3.org/1999/xlink" width="611" height="615" version="1.1" viewBox="0 0 611 615"><title>Scoped Slot</title><defs><rect id="path-1" width="499" height="507" x="58" y="54" rx="8"/><mask id="mask-2" width="503" height="511" x="-2" y="-2" maskContentUnits="userSpaceOnUse" maskUnits="objectBoundingBox"><rect width="503" height="511" x="56" y="52" fill="#fff"/><use fill="#000" xlink:href="#path-1"/></mask><rect id="path-3" width="319" height="129" x="0" y="0" rx="8"/><mask id="mask-4" width="323" height="133" x="-2" y="-2" maskContentUnits="userSpaceOnUse" maskUnits="objectBoundingBox"><rect width="323" height="133" x="-2" y="-2" fill="#fff"/><use fill="#000" xlink:href="#path-3"/></mask><mask id="mask-6" width="323" height="133" x="-2" y="-2" maskContentUnits="userSpaceOnUse" maskUnits="objectBoundingBox"><rect width="323" height="133" x="-2" y="-2" fill="#fff"/><use fill="#000" xlink:href="#path-3"/></mask></defs><g id="Diagrams" fill="none" fill-rule="evenodd" stroke="none" stroke-width="1"><g id="Scoped-Slot"><use id="Rectangle" stroke="#23AC70" stroke-dasharray="4 4" stroke-width="4" mask="url(#mask-2)" xlink:href="#path-1"/><g id="TodoList-Component" transform="translate(105.000000, 319.000000)"><rect id="Rectangle" width="380" height="212" x="0" y="0" fill="#FF8228" rx="8"/><g id="Slot" transform="translate(31.000000, 57.000000)"><mask id="mask-5" fill="#fff"><use xlink:href="#path-3"/></mask><g id="Rectangle-Copy" stroke="#FFF" stroke-dasharray="2 3" stroke-width="4" mask="url(#mask-4)"><use mask="url(#mask-6)" xlink:href="#path-3"/></g><rect id="Rectangle-Copy-2" width="319" height="100" x="0" y="43" fill="#E56000" mask="url(#mask-5)"/></g><text id="TodoList" fill="#FFF" font-family="Helvetica" font-size="14" font-weight="normal"><tspan x="159.928" y="31">TodoList</tspan></text><text id="Slot" fill="#FFF" font-family="Helvetica" font-size="14" font-weight="normal"><tspan x="173.938" y="86">Slot</tspan></text></g><text id="Parent-Component" fill="#23AC70" font-family="Helvetica" font-size="16" font-weight="normal"><tspan x="216.348" y="90">Parent Component</tspan></text><g id="HTML" transform="translate(105.000000, 115.000000)"><rect id="Rectangle" width="380" height="173" x="0" y="0" fill="#3E6B94" rx="2"/><text id="&lt;todo-list&gt;-&lt;templat" font-family="Helvetica" font-size="14" font-weight="normal"><tspan x="20" y="27" fill="#FFF">&lt;todo-list&gt;</tspan> <tspan x="20" y="47" fill="#FFF"> &lt;template v-slot:default=&quot;</tspan> <tspan x="186.059" y="47" fill="#39DD95">slotProps</tspan> <tspan x="244.417" y="47" fill="#FFF">&quot;&gt;</tspan> <tspan x="20" y="67" fill="#FFF"> &lt;span&gt;</tspan> <tspan x="20" y="87" fill="#FFF"> {{ </tspan> <tspan x="56.579" y="87" fill="#39DD95">slotProps</tspan> <tspan x="114.938" y="87" fill="#FFF">.item }}</tspan> <tspan x="20" y="107" fill="#FFF"> &lt;span&gt;</tspan> <tspan x="20" y="127" fill="#FFF"> &lt;/template&gt;</tspan> <tspan x="20" y="147" fill="#FFF">&lt;/todo-list&gt;</tspan></text><text id="&lt;li-v-for=&quot;item-in-i" fill="#FFF" font-family="Helvetica" font-size="14" font-weight="normal"><tspan x="38" y="331">&lt;li v-for=&quot;item in items&quot;&gt;</tspan> <tspan x="38" y="351"> &lt;slot :item=&quot;item&quot;&gt;&lt;/slot&gt;</tspan> <tspan x="38" y="371"> &lt;/li&gt;</tspan></text></g><g id="Arrow" transform="translate(351.000000, 172.000000)"><path id="Line" fill="#FFF" fill-rule="nonzero" d="M14,22 L14,28 L49,28 L49,30 L14,30 L14,36 L0,29 L14,22 Z"/><line id="Line" x1="48" x2="48" y1="0" y2="29" stroke="#FFF" stroke-linecap="square" stroke-width="2"/></g><g id="Arrow" transform="translate(463.000000, 310.500000) scale(1, -1) translate(-463.000000, -310.500000) translate(404.000000, 157.000000)"><line id="Line" x1="115" x2="82" y1="306" y2="306" stroke="#9AA9B2" stroke-linecap="square" stroke-width="2"/><path id="Line-Copy-2" fill="#FFF" fill-rule="nonzero" d="M70,299 L70,305 L81,305 L81,307 L70,307 L70,313 L56,306 L70,299 Z"/><line id="Line" x1="117" x2="82" y1="1" y2="1" stroke="#9AA9B2" stroke-linecap="square" stroke-width="2"/><line id="Line-Copy" x1="80" x2="0" y1="1" y2="1" stroke="#FFF" stroke-linecap="square" stroke-width="2"/><line id="Line" x1="117" x2="117" y1="1" y2="306" stroke="#9AA9B2" stroke-linecap="square" stroke-width="2"/></g></g></g></svg>