<svg xmlns="http://www.w3.org/2000/svg" xmlns:xlink="http://www.w3.org/1999/xlink" width="447" height="498" version="1.1" viewBox="0 0 447 498"><title>Slot Render Scope</title><defs><rect id="path-1" width="236" height="105" x="0" y="0" rx="8"/><rect id="path-3" width="329" height="390" x="58" y="54" rx="8"/><mask id="mask-4" width="333" height="394" x="-2" y="-2" maskContentUnits="userSpaceOnUse" maskUnits="objectBoundingBox"><rect width="333" height="394" x="56" y="52" fill="#fff"/><use fill="#000" xlink:href="#path-3"/></mask></defs><g id="Diagrams" fill="none" fill-rule="evenodd" stroke="none" stroke-width="1"><g id="Slot-Render-Scope"><g id="TodoButton-Component" transform="translate(105.000000, 312.000000)"><mask id="mask-2" fill="#fff"><use xlink:href="#path-1"/></mask><use id="Rectangle" fill="#FF8228" xlink:href="#path-1"/><rect id="Rectangle" width="92" height="36" x="72" y="49" stroke="#FFF" stroke-width="2" mask="url(#mask-2)" rx="3"/><text id="Data" fill="#FFF" font-family="Helvetica" font-size="14" font-weight="normal" mask="url(#mask-2)"><tspan x="103.714" y="72">Data</tspan></text><text id="TodoButton" fill="#FFF" font-family="Helvetica" font-size="14" font-weight="normal" mask="url(#mask-2)"><tspan x="80.083" y="31">TodoButton</tspan></text></g><use id="Rectangle" stroke="#23AC70" stroke-dasharray="4 4" stroke-width="4" mask="url(#mask-4)" xlink:href="#path-3"/><text id="Parent-Component" fill="#23AC70" font-family="Helvetica" font-size="16" font-weight="normal"><tspan x="155.348" y="90">Parent Component</tspan></text><g id="HTML" transform="translate(105.000000, 193.000000)"><rect id="Rectangle" width="236" height="88" x="0" y="0" fill="#3E6B94" rx="2"/><text id="&lt;todo-button&gt;-Delete" font-family="Helvetica" font-size="14" font-weight="normal"><tspan x="24" y="26" fill="#FFF">&lt;todo-button&gt;</tspan> <tspan x="24" y="46" fill="#FFF"> Delete </tspan> <tspan x="76.138" y="46" fill="#39DD95">{{ item }}</tspan> <tspan x="24" y="66" fill="#FFF">&lt;/todo-button&gt;</tspan></text></g><g id="Data" transform="translate(105.000000, 110.000000)"><rect id="Rectangle" width="236" height="71" x="0" y="0" fill="#21BD79" rx="8"/><text fill="#FFF" font-family="Helvetica" font-size="14" font-weight="normal"><tspan x="102.714" y="28">Data</tspan></text><text id="{-item:-'First-Item'" fill="#FFF" font-family="Helvetica" font-size="14" font-weight="normal"><tspan x="60.482" y="53">{ </tspan> <tspan x="69.048" y="53">item: &apos;First Item&apos; }</tspan></text></g><g id="Arrow" transform="translate(297.000000, 158.000000)"><line id="Line" x1="71" x2="45" y1="78" y2="78" stroke="#9AA9B2" stroke-linecap="square" stroke-width="2"/><path id="Line-Copy" fill="#FFF" fill-rule="nonzero" d="M14,71 L14,77 L44,77 L44,79 L14,79 L14,85 L0,78 L14,71 Z"/><line id="Line" x1="70" x2="45" y1="1" y2="1" stroke="#9AA9B2" stroke-linecap="square" stroke-width="2"/><line id="Line" x1="43" x2="21" y1="1" y2="1" stroke="#FFF" stroke-linecap="square" stroke-width="2"/><line id="Line" x1="71" x2="71" y1="1" y2="78" stroke="#9AA9B2" stroke-linecap="square" stroke-width="2"/></g></g></g></svg>